# 3ds Max Wavefront OBJ Exporter v0.97b - (c)2007 guruware
# 创建的文件:22.12.2020 15:47:08

mtllib Stone2.mtl

#
# object RockMed_03
#

v  -8073.7910 0.0000 100.5295
v  -8073.9971 15.6066 100.8404
v  -8051.9829 17.6026 122.7316
v  -8051.3892 0.0000 122.8510
v  -8084.2710 0.0000 97.0928
v  -8084.0464 15.7773 97.3358
v  -8102.2617 8.8950 102.4548
v  -8101.1479 12.7098 102.3308
v  -8105.5503 0.0000 105.5567
v  -8117.1172 0.0000 129.3657
v  -8121.5293 17.2585 132.0778
v  -8109.2720 10.3002 108.9645
v  -8106.6147 0.0000 149.4268
v  -8111.8774 20.2176 151.9532
v  -8095.5894 4.0412 161.8375
v  -8068.7969 0.0000 158.4763
v  -8068.2104 4.0412 160.2812
v  -8095.0029 0.0000 160.0326
v  -8052.7314 0.0000 147.4623
v  -8051.1963 10.3527 148.5778
v  -8075.1431 22.8327 143.6668
v  -8065.4570 24.1592 155.9881
v  -8053.2490 21.7875 147.2631
v  -8109.7959 20.7401 115.5005
v  -8108.2671 14.6953 109.1513
v  -8109.8062 26.5970 150.6266
v  -8118.1118 24.1981 132.4955
v  -8095.1509 20.1330 160.6653
v  -8068.7124 19.5265 158.9394
v  -8093.5591 26.7123 158.6391
v  -8073.6279 24.9597 157.1075
v  -8093.0479 18.7223 109.3085
v  -8103.8257 20.2124 115.0257
# 33 vertices

vn 0.7039 0.0234 -0.7099
vn 0.7057 0.0190 -0.7082
vn 0.3294 0.0098 -0.9441
vn 0.3115 0.0230 -0.9500
vn -0.2887 0.0532 -0.9559
vn -0.2771 0.0187 -0.9607
vn -0.8880 -0.1592 -0.4314
vn -0.8902 -0.1838 -0.4168
vn -0.8474 -0.2772 0.4528
vn -0.8487 -0.2868 0.4443
vn -0.6775 -0.2622 0.6872
vn 0.0517 -0.4135 0.9090
vn 0.0543 -0.4006 0.9146
vn 0.5156 -0.4107 0.7520
vn 0.9869 -0.1522 0.0538
vn 0.0000 -1.0000 -0.0000
vn 0.0739 0.9837 -0.1640
vn -0.8803 0.2192 -0.4207
vn -0.8101 0.2813 -0.5143
vn -0.8523 0.3994 0.3376
vn -0.8605 0.3553 0.3650
vn -0.4603 0.0770 0.8844
vn 0.0666 0.0707 0.9953
vn 0.0565 0.0880 0.9945
vn 0.5416 0.0900 0.8358
vn -0.4297 0.3591 0.8285
vn -0.4218 0.3139 0.8507
vn -0.6808 -0.0037 -0.7324
vn -0.6497 0.1800 -0.7386
vn -0.6571 0.1680 -0.7348
vn -0.6074 0.6841 0.4038
vn 0.7589 0.6245 -0.1844
vn 0.1052 0.4019 0.9096
vn 0.0689 0.2783 0.9580
vn 0.5951 0.1964 0.7793
vn 0.5552 0.1328 0.8210
vn -0.2779 0.8633 -0.4213
vn 0.0094 0.7254 -0.6883
vn -0.2018 0.7854 -0.5851
vn -0.2201 0.8506 -0.4774
vn -0.7820 0.4132 -0.4667
vn 0.0881 0.9826 -0.1634
vn 0.0578 0.9873 -0.1483
vn 0.0798 0.9802 -0.1811
vn -0.6201 -0.3932 0.6789
vn 0.6010 -0.1732 0.7803
vn 0.9837 0.1789 0.0202
vn 0.9992 0.0336 -0.0210
vn -0.3633 -0.1842 -0.9133
# 49 vertex normals

vt 0.2711 0.5083 0.0000
vt 0.2722 0.8944 0.0000
vt 0.3514 0.9117 0.0000
vt 0.3518 0.5083 0.0000
vt 0.2586 0.5083 0.0000
vt 0.2595 0.8959 0.0000
vt 0.2780 0.8360 0.0000
vt 0.2776 0.8692 0.0000
vt 0.2893 0.5083 0.0000
vt 0.3754 0.5083 0.0000
vt 0.3852 0.9087 0.0000
vt 0.3016 0.8482 0.0000
vt 0.4479 0.5083 0.0000
vt 0.4571 0.9344 0.0000
vt 0.4928 0.6246 0.0000
vt 0.4807 0.5083 0.0000
vt 0.4872 0.6246 0.0000
vt 0.4863 0.5083 0.0000
vt 0.4408 0.5083 0.0000
vt 0.4449 0.8487 0.0000
vt 0.4271 0.9572 0.0000
vt 0.4717 0.9687 0.0000
vt 0.4401 0.9481 0.0000
vt 0.3252 0.9390 0.0000
vt 0.3023 0.8864 0.0000
vt 0.4523 0.9899 0.0000
vt 0.3867 0.9690 0.0000
vt 0.4886 0.9337 0.0000
vt 0.4823 0.9284 0.0000
vt 0.4812 0.9909 0.0000
vt 0.4757 0.9757 0.0000
vt 0.3028 0.9214 0.0000
vt 0.3235 0.9344 0.0000
# 33 texture coords

o RockMed_03
g RockMed_03
usemtl 08___Default
s off
f 1/1/1 2/2/1 3/3/1 4/4/2 
f 5/5/3 6/6/3 2/2/3 1/1/4 
f 7/7/5 8/8/5 6/6/5 5/5/6 
f 9/9/7 10/10/7 11/11/7 12/12/8 
f 13/13/9 14/14/9 11/11/9 10/10/10 
f 13/13/11 15/15/11 14/14/11 
f 16/16/12 17/17/12 15/15/12 18/18/13 
f 16/16/14 19/19/14 17/17/14 
f 19/19/15 4/4/15 20/20/15 
f 16/16/16 18/18/16 13/13/16 4/4/16 
f 13/13/16 10/10/16 9/9/16 4/4/16 
f 9/9/16 5/5/16 1/1/16 4/4/16 
f 19/19/16 16/16/16 4/4/16 
f 21/21/17 22/22/17 23/23/17 3/3/17 
f 24/24/18 25/25/18 12/12/18 11/11/19 
f 26/26/20 27/27/20 11/11/20 14/14/21 
f 15/15/22 28/28/22 14/14/22 
f 29/29/23 28/28/23 15/15/23 17/17/24 
f 20/20/25 29/29/25 17/17/25 
f 14/14/26 28/28/26 30/30/26 26/26/27 
f 9/9/28 12/12/28 7/7/28 
f 7/7/29 12/12/29 25/25/29 8/8/30 
f 3/3/17 2/2/17 21/21/17 
f 22/22/31 21/21/31 29/29/31 
f 21/21/32 31/31/32 29/29/32 
f 29/29/33 31/31/33 30/30/33 28/28/34 
f 20/20/35 23/23/35 22/22/35 29/29/36 
f 30/30/17 31/31/17 21/21/17 
f 6/6/37 8/8/37 32/32/37 
f 25/25/38 24/24/38 33/33/38 
f 25/25/39 33/33/39 32/32/39 8/8/40 
f 11/11/41 27/27/41 24/24/41 
f 33/33/17 24/24/17 27/27/17 
f 2/2/42 32/32/42 21/21/42 
f 32/32/43 33/33/43 21/21/43 
f 2/2/44 6/6/44 32/32/44 
f 13/13/45 18/18/45 15/15/45 
f 19/19/46 20/20/46 17/17/46 
f 26/26/17 30/30/17 21/21/17 27/27/17 
f 3/3/47 23/23/47 20/20/47 4/4/48 
f 5/5/49 9/9/49 7/7/49 
f 33/33/17 27/27/17 21/21/17 
# 20 polygons - 22 triangles

