# 3ds Max Wavefront OBJ Exporter v0.97b - (c)2007 guruware
# 创建的文件:22.12.2020 15:45:06

mtllib 模型\stone1.mtl

#
# object RockLrg_01
#

v  -7608.6191 -0.5489 211.7205
v  -7614.2720 -0.5653 150.0955
v  -7515.5645 -0.6285 153.1822
v  -7563.3242 -0.7323 234.3976
v  -7609.6338 74.9105 191.0984
v  -7576.9492 90.6802 213.0994
v  -7576.6123 105.2406 147.5105
v  -7621.0352 81.5572 147.8137
v  -7566.8594 40.5243 243.6334
v  -7603.2383 34.8107 224.6125
v  -7470.8286 48.0364 242.0286
v  -7435.1045 -0.7155 223.4051
v  -7469.6289 -0.7407 111.7681
v  -7504.7271 -0.3643 99.6144
v  -7513.2734 42.6356 101.1616
v  -7461.4814 38.5005 116.9329
v  -7597.0698 -0.7061 122.9147
v  -7624.1338 41.6855 150.8461
v  -7611.0698 31.1332 129.3140
v  -7467.6680 75.8456 201.5155
v  -7423.8643 40.8269 132.3332
v  -7427.7495 64.5115 146.4837
v  -7426.7974 69.6137 160.3345
v  -7411.8008 24.4901 187.7942
v  -7547.8394 -0.6379 79.3428
v  -7417.2690 -0.5478 177.5082
v  -7426.4331 -0.0744 136.1786
v  -7612.3296 85.8180 135.0980
v  -7601.0596 50.7259 116.6984
v  -7577.6094 107.2089 120.9789
v  -7538.4336 109.6394 176.2201
v  -7537.9609 115.6086 132.6602
v  -7555.7173 31.0993 82.6264
v  -7421.7500 33.7180 235.0947
v  -7419.6069 52.2965 231.9548
v  -7470.4302 82.3241 178.9063
v  -7453.8027 75.8878 144.8988
v  -7424.1147 66.9466 198.7085
# 38 vertices

vn -0.0007 -1.0000 0.0003
vn -0.0026 -1.0000 -0.0028
vn -0.5240 0.8321 0.1820
vn -0.4541 0.8549 0.2509
vn -0.4362 -0.2320 0.8694
vn -0.4163 -0.2549 0.8728
vn 0.0332 -0.2156 0.9759
vn 0.0814 -0.3030 0.9495
vn 0.3266 0.0987 -0.9400
vn 0.2954 0.0641 -0.9532
vn -0.8309 -0.1846 -0.5249
vn -0.8728 -0.3076 -0.3788
vn -0.0552 0.8252 0.5621
vn 0.9549 0.2511 -0.1582
vn 0.9620 0.2344 -0.1402
vn -0.9590 0.0949 0.2672
vn -0.9571 0.0802 0.2786
vn 0.0136 -0.9998 0.0138
vn -0.0007 -1.0000 0.0004
vn 0.9728 -0.0815 -0.2167
vn 0.9638 -0.1109 -0.2423
vn -0.9600 0.0454 0.2762
vn -0.9696 -0.2279 0.0890
vn -0.8138 0.0426 -0.5796
vn -0.8306 0.0396 -0.5554
vn -0.8490 0.0258 -0.5278
vn -0.4574 0.5262 0.7169
vn -0.6290 0.3080 0.7138
vn -0.4704 0.8820 -0.0265
vn -0.4981 0.8631 0.0828
vn -0.2647 0.9417 0.2077
vn -0.2418 0.9617 0.1292
vn -0.1728 0.9818 0.0793
vn 0.1675 0.4379 -0.8833
vn 0.2334 0.4903 -0.8397
vn -0.0002 -1.0000 -0.0037
vn 0.0010 -1.0000 -0.0007
vn -0.0517 -0.9916 0.1185
vn 0.0055 -1.0000 -0.0038
vn 0.0039 -0.9999 -0.0123
vn 0.0079 -1.0000 -0.0033
vn 0.1794 0.1438 0.9732
vn 0.8796 -0.3320 0.3406
vn 0.8653 -0.4256 0.2650
vn 0.9728 -0.0751 0.2193
vn 0.3565 0.9088 0.2169
vn 0.0433 0.8221 0.5677
vn 0.1607 0.5366 0.8284
vn 0.3515 0.1823 -0.9183
vn 0.4220 0.1162 -0.8991
vn 0.2848 0.5360 -0.7947
vn 0.3392 0.4672 -0.8165
vn 0.3935 0.8536 -0.3415
vn 0.2785 0.5259 -0.8037
vn 0.2919 0.5337 -0.7937
vn 0.4918 0.0125 -0.8706
vn 0.3824 -0.1103 -0.9174
vn -0.6602 -0.0867 -0.7461
vn -0.6394 -0.1288 -0.7580
vn -0.5009 0.2703 -0.8222
vn 0.2972 0.9537 0.0455
vn 0.2092 0.9465 0.2457
vn 0.1697 0.7931 0.5849
vn 0.4224 0.9057 0.0351
vn 0.3651 0.9218 0.1303
vn -0.6364 -0.1606 -0.7544
vn 0.9561 0.2893 -0.0467
vn 0.9599 0.2801 -0.0067
vn 0.2088 0.9051 0.3705
vn 0.2568 0.9648 -0.0571
vn 0.0357 -0.3337 0.9420
# 71 vertex normals

vt 0.2879 0.5123 0.0000
vt 0.2820 0.5119 0.0000
vt 0.3837 0.5100 0.0000
vt 0.3345 0.5051 0.0000
vt 0.2868 0.8269 0.0000
vt 0.3205 0.8901 0.0000
vt 0.3208 0.9485 0.0000
vt 0.2751 0.8536 0.0000
vt 0.3309 0.6891 0.0000
vt 0.2934 0.6662 0.0000
vt 0.4298 0.7192 0.0000
vt 0.4666 0.5131 0.0000
vt 0.4311 0.5389 0.0000
vt 0.3949 0.5275 0.0000
vt 0.3861 0.6976 0.0000
vt 0.4394 0.6810 0.0000
vt 0.2961 0.5100 0.0000
vt 0.2719 0.6938 0.0000
vt 0.2853 0.6515 0.0000
vt 0.4331 0.8307 0.0000
vt 0.4782 0.6904 0.0000
vt 0.4742 0.7853 0.0000
vt 0.4752 0.8057 0.0000
vt 0.4906 0.6249 0.0000
vt 0.3505 0.5098 0.0000
vt 0.4850 0.5222 0.0000
vt 0.4756 0.5359 0.0000
vt 0.2840 0.8707 0.0000
vt 0.2956 0.7300 0.0000
vt 0.3198 0.9564 0.0000
vt 0.3602 0.9661 0.0000
vt 0.3607 0.9901 0.0000
vt 0.3424 0.6514 0.0000
vt 0.4804 0.6619 0.0000
vt 0.4826 0.7363 0.0000
vt 0.4302 0.8567 0.0000
vt 0.4474 0.8309 0.0000
vt 0.4779 0.7950 0.0000
# 38 texture coords

o RockLrg_01
g RockLrg_01
usemtl 08___Default
s off
f 1/1/1 2/2/1 3/3/1 4/4/2 
f 5/5/3 6/6/3 7/7/3 8/8/4 
f 1/1/5 4/4/5 9/9/5 10/10/6 
f 11/11/7 9/9/7 4/4/7 12/12/8 
f 13/13/9 14/14/9 15/15/9 16/16/10 
f 17/17/11 2/2/11 18/18/11 19/19/12 
f 11/11/13 20/20/13 9/9/13 
f 21/21/14 22/22/14 23/23/14 24/24/15 
f 5/5/16 8/8/16 18/18/16 10/10/17 
f 2/2/18 17/17/18 25/25/18 3/3/19 
f 26/26/20 27/27/20 21/21/20 24/24/21 
f 1/1/22 10/10/22 18/18/22 2/2/23 
f 28/28/24 29/29/24 19/19/24 8/8/25 
f 8/8/26 19/19/26 18/18/26 
f 5/5/27 10/10/27 9/9/27 6/6/28 
f 28/28/29 8/8/29 7/7/29 30/30/30 
f 7/7/31 6/6/31 31/31/31 
f 31/31/32 32/32/32 30/30/32 7/7/33 
f 30/30/34 32/32/34 15/15/34 33/33/35 
f 26/26/36 12/12/36 4/4/36 3/3/37 
f 14/14/38 13/13/38 27/27/38 3/3/39 
f 27/27/40 26/26/40 3/3/40 
f 25/25/41 14/14/41 3/3/41 
f 34/34/42 35/35/42 11/11/42 
f 12/12/43 26/26/43 24/24/43 34/34/44 
f 35/35/45 34/34/45 24/24/45 
f 20/20/46 36/36/46 31/31/46 
f 11/11/47 35/35/47 20/20/47 
f 20/20/48 6/6/48 9/9/48 
f 25/25/49 33/33/49 15/15/49 14/14/50 
f 37/37/51 16/16/51 15/15/51 32/32/52 
f 37/37/53 23/23/53 22/22/53 
f 37/37/54 22/22/54 21/21/54 16/16/55 
f 27/27/56 13/13/56 16/16/56 21/21/57 
f 33/33/58 25/25/58 17/17/58 19/19/59 
f 28/28/60 30/30/60 33/33/60 29/29/60 
f 38/38/61 23/23/61 36/36/61 
f 20/20/62 38/38/62 36/36/62 
f 6/6/63 20/20/63 31/31/63 
f 36/36/64 37/37/64 32/32/64 31/31/65 
f 19/19/66 29/29/66 33/33/66 
f 23/23/67 38/38/67 24/24/67 
f 38/38/68 35/35/68 24/24/68 
f 35/35/69 38/38/69 20/20/69 
f 23/23/70 37/37/70 36/36/70 
f 12/12/71 34/34/71 11/11/71 
# 26 polygons - 20 triangles

